<svg xmlns="http://www.w3.org/2000/svg" width="24" height="24" viewBox="0 0 24 24" fill="none" stroke="#2D6A4F" stroke-width="2" stroke-linecap="round" stroke-linejoin="round">
  <path d="M2 12a10 10 0 1 0 20 0 10 10 0 1 0-20 0Z"></path>
  <path d="M16 12a4 4 0 1 1-8 0 4 4 0 0 1 8 0Z"></path>
  <path d="M12 2v4"></path>
  <path d="M12 18v4"></path>
  <path d="m4.93 4.93 2.83 2.83"></path>
  <path d="m16.24 16.24 2.83 2.83"></path>
  <path d="M2 12h4"></path>
  <path d="M18 12h4"></path>
  <path d="m4.93 19.07 2.83-2.83"></path>
  <path d="m16.24 7.76 2.83-2.83"></path>
</svg>